<svg aria-hidden="true" style="width: 0; height: 0; position: absolute; overflow: hidden" version="1.1" xmlns="http://www.w3.org/2000/svg" xmlns:xlink="http://www.w3.org/1999/xlink">
<defs>
<symbol id="icon-facebook" viewBox="0 0 32 32">
<title>facebook</title>
<path d="M2.667 8c0-2.946 2.388-5.333 5.333-5.333h16c2.945 0 5.333 2.388 5.333 5.333v16c0 2.945-2.388 5.333-5.333 5.333h-16c-2.946 0-5.333-2.388-5.333-5.333v-16zM8 5.333c-1.473 0-2.667 1.194-2.667 2.667v16c0 1.473 1.194 2.667 2.667 2.667h8v-9.333h-1.333c-0.736 0-1.333-0.597-1.333-1.333s0.597-1.333 1.333-1.333h1.333v-2c0-2.577 2.089-4.667 4.667-4.667h0.8c0.736 0 1.333 0.597 1.333 1.333s-0.597 1.333-1.333 1.333h-0.8c-1.105 0-2 0.895-2 2v2h2.8c0.736 0 1.333 0.597 1.333 1.333s-0.597 1.333-1.333 1.333h-2.8v9.333h5.333c1.473 0 2.667-1.194 2.667-2.667v-16c0-1.473-1.194-2.667-2.667-2.667h-16z"></path>
</symbol>
<symbol id="icon-git-repository" viewBox="0 0 32 32">
<title>git-repository</title>
<path d="M8 2.667c-2.946 0-5.333 2.388-5.333 5.333v16c0 2.945 2.388 5.333 5.333 5.333h16c2.945 0 5.333-2.388 5.333-5.333v-16c0-2.946-2.388-5.333-5.333-5.333h-16zM5.333 8c0-1.473 1.194-2.667 2.667-2.667h16c1.473 0 2.667 1.194 2.667 2.667v16c0 1.473-1.194 2.667-2.667 2.667h-16c-1.473 0-2.667-1.194-2.667-2.667v-16zM14.276 12.943l-3.057 3.057 3.057 3.057c0.521 0.521 0.521 1.365 0 1.886s-1.365 0.521-1.886 0l-4-4c-0.521-0.521-0.521-1.365 0-1.886l4-4c0.521-0.521 1.365-0.521 1.886 0s0.521 1.365 0 1.886zM19.609 11.057l4 4c0.521 0.521 0.521 1.365 0 1.886l-4 4c-0.521 0.521-1.365 0.521-1.886 0s-0.521-1.365 0-1.886l3.057-3.057-3.057-3.057c-0.521-0.521-0.521-1.365 0-1.886s1.365-0.521 1.886 0z"></path>
</symbol>
<symbol id="icon-instagram" viewBox="0 0 32 32">
<title>instagram</title>
<path d="M2.667 8c0-2.946 2.388-5.333 5.333-5.333h16c2.945 0 5.333 2.388 5.333 5.333v16c0 2.945-2.388 5.333-5.333 5.333h-16c-2.946 0-5.333-2.388-5.333-5.333v-16zM8 5.333c-1.473 0-2.667 1.194-2.667 2.667v16c0 1.473 1.194 2.667 2.667 2.667h16c1.473 0 2.667-1.194 2.667-2.667v-16c0-1.473-1.194-2.667-2.667-2.667h-16zM16 12c-2.209 0-4 1.791-4 4s1.791 4 4 4c2.209 0 4-1.791 4-4s-1.791-4-4-4zM9.333 16c0-3.682 2.985-6.667 6.667-6.667s6.667 2.985 6.667 6.667c0 3.682-2.985 6.667-6.667 6.667s-6.667-2.985-6.667-6.667zM23.333 10.667c-1.105 0-2-0.895-2-2s0.895-2 2-2c1.105 0 2 0.895 2 2s-0.895 2-2 2z"></path>
</symbol>
<symbol id="icon-right-arrow" viewBox="0 0 32 32">
<title>right-arrow</title>
<path d="M16.391 5.724c0.521-0.521 1.365-0.521 1.886 0l9.333 9.333c0.521 0.521 0.521 1.365 0 1.886l-9.333 9.333c-0.521 0.521-1.365 0.521-1.886 0s-0.521-1.365 0-1.886l7.057-7.057h-18.114c-0.736 0-1.333-0.597-1.333-1.333s0.597-1.333 1.333-1.333h18.114l-7.057-7.057c-0.521-0.521-0.521-1.365 0-1.886z"></path>
</symbol>
<symbol id="icon-twitter" viewBox="0 0 32 32">
<title>twitter</title>
<path d="M19.798 7.545c1.638 0 3.055 0.957 3.718 2.349l0.362 0.76h2.881c-0.448 0.961-1.074 1.801-1.959 2.423l-0.567 0.398v0.693c0 6.266-5.16 11.379-11.567 11.379-1.995 0-3.87-0.496-5.507-1.369 1.104-0.288 1.957-0.833 2.804-1.564l1.552-1.339-1.853-0.876c-0.562-0.265-1.090-0.602-1.523-0.967 0.106-0.042 0.213-0.090 0.32-0.144l2.161-1.080-2.081-1.262c-0.015-0.009-0.038-0.024-0.069-0.044-0.063-0.041-0.157-0.103-0.273-0.183-0.233-0.162-0.547-0.394-0.871-0.673-0.286-0.246-0.542-0.496-0.756-0.74l1.773-0.757-0.905-1.339c-0.604-0.893-0.882-1.746-0.924-2.548 2.157 1.814 4.835 3.030 7.779 3.391 0.425 0.052 0.849-0.103 1.14-0.416s0.414-0.748 0.331-1.167c-0.052-0.261-0.079-0.531-0.079-0.809 0-2.272 1.842-4.115 4.115-4.115zM4.758 17.277c-0.251 0.288-0.371 0.675-0.316 1.063 0.15 1.068 0.79 1.988 1.497 2.69 0.192 0.191 0.397 0.374 0.613 0.548-0.033 0.009-0.066 0.018-0.1 0.026-0.642 0.161-1.507 0.194-2.949 0.053-0.558-0.055-1.090 0.245-1.332 0.75s-0.143 1.108 0.249 1.509c2.589 2.649 6.226 4.296 10.246 4.296 7.617 0 13.865-5.914 14.218-13.378 1.719-1.444 2.58-3.399 3.044-5.178 0.104-0.4 0.018-0.825-0.235-1.152s-0.642-0.518-1.055-0.518h-3.138c-1.206-1.869-3.308-3.109-5.701-3.109-3.559 0-6.477 2.741-6.759 6.227-2.492-0.646-4.678-2.055-6.294-3.966-0.295-0.349-0.747-0.522-1.2-0.46s-0.841 0.351-1.031 0.766c-0.806 1.763-0.962 3.796-0.059 5.862l-0.312 0.133c-0.617 0.263-0.942 0.944-0.759 1.59 0.246 0.87 0.805 1.638 1.375 2.247z"></path>
</symbol>
<symbol id="icon-vegan" viewBox="0 0 32 32">
<title>vegan</title>
<path d="M1.727 4.946c-0.523-0.519-0.525-1.363-0.007-1.886s1.363-0.525 1.886-0.007c5.694 5.654 10.022 12.436 12.598 20.629 0.193-0.377 0.4-0.765 0.616-1.158-0.174-0.284-0.297-0.605-0.355-0.954l-0.306-1.833c-0.942-5.65 2.747-11.035 8.356-12.198l1.453-0.301c1.452-0.301 2.871 0.641 3.158 2.096l0.324 1.645c1.162 5.9-2.78 11.594-8.712 12.583l-1.205 0.201c-0.124 0.021-0.248 0.033-0.371 0.036-0.465 0.843-0.871 1.641-1.185 2.337-0.229 0.506-0.4 0.938-0.511 1.283-0.055 0.172-0.091 0.309-0.112 0.413-0.018 0.091-0.021 0.136-0.021 0.143 0 0.001 0 0.001 0 0.001l-0-0.001c0.010 0.573-0.347 1.089-0.887 1.281s-1.142 0.017-1.496-0.434l-11.758-15c-0.454-0.58-0.353-1.418 0.227-1.872s1.418-0.353 1.872 0.227l7.342 9.367c-2.494-6.465-6.206-11.931-10.906-16.598zM20.947 20.797c4.084-1.028 6.716-5.095 5.887-9.302l-0.324-1.645-1.453 0.301c-4.185 0.868-6.945 4.871-6.277 9.085 1.229-1.921 2.543-3.73 3.59-4.824 0.509-0.532 1.353-0.55 1.885-0.041s0.55 1.353 0.041 1.885c-0.908 0.948-2.15 2.656-3.349 4.541z"></path>
</symbol>
<symbol id="icon-cancel" viewBox="0 0 32 32">
<title>cancel</title>
<path d="M7.057 7.057c0.521-0.521 1.365-0.521 1.886 0l7.057 7.057 7.057-7.057c0.521-0.521 1.365-0.521 1.886 0s0.521 1.365 0 1.886l-7.057 7.057 7.057 7.057c0.521 0.521 0.521 1.365 0 1.886s-1.365 0.521-1.886 0l-7.057-7.057-7.057 7.057c-0.521 0.521-1.365 0.521-1.886 0s-0.521-1.365 0-1.886l7.057-7.057-7.057-7.057c-0.521-0.521-0.521-1.365 0-1.886z"></path>
</symbol>
</defs>
</svg>
